<svg xmlns="http://www.w3.org/2000/svg" viewBox="0 0 770 128" fill="#F3BA2F">
  <path d="M64 16L46.6 33.4l6.8 6.8L64 29.6l10.6 10.6 6.8-6.8L64 16zM33.4 46.6L16 64l17.4 17.4 6.8-6.8L29.6 64l10.6-10.6-6.8-6.8zM94.6 46.6l-6.8 6.8L98.4 64l-10.6 10.6 6.8 6.8L112 64 94.6 46.6zM64 50.8L50.8 64 64 77.2 77.2 64 64 50.8zM46.6 94.6L64 112l17.4-17.4-6.8-6.8L64 98.4l-10.6-10.6-6.8 6.8z"/>
  <path d="M152 38h14.4c8.8 0 14.4 4 14.4 11.2 0 4.8-2.8 8-7.2 9.6 5.2 1.6 8.4 5.6 8.4 10.8 0 7.6-6 11.6-15.2 11.6H152V38zm13.6 17.6c4 0 6.4-2 6.4-5.2s-2.4-5.2-6.4-5.2h-6.8v10.4h6.8zm1.2 18c4.4 0 7.2-2.4 7.2-6 0-3.6-2.8-6-7.2-6h-8v12h8zM192 38h7.2v43.2H192zM210 38h6.8l12 21.6V38h7.2v43.2h-6.8l-12-21.6v21.6H210V38zM254 38h8l10.8 43.2h-7.6l-2.4-10H251l-2.4 10h-7.2L254 38zm7.6 26l-4.4-18-4.4 18h8.8zM282 38h6.8l12 21.6V38h7.2v43.2h-6.8l-12-21.6v21.6H282V38zM330 45.2h-10.4V38h28v7.2h-10.4v36H330v-36zM356 38h7.2v43.2H356zM374 38h6.8l12 21.6V38h7.2v43.2h-6.8l-12-21.6v21.6H374V38zM410 38h7.2v43.2H410zM453 38h8l10.8 43.2h-7.6l-2.4-10h-11.6l-2.4 10H440L453 38zm7.6 26l-4.4-18-4.4 18h8.8z" fill="#F3BA2F"/>
</svg>
