<svg xmlns="http://www.w3.org/2000/svg" viewBox="0 0 2500 2500" fill="#F3BA2F">
  <path d="M764.48 1050.52L1250 565l485.75 485.73 282.5-282.5L1250 0 482 768l282.49 282.52M0 1250l282.5-282.5L565 1250l-282.5 282.5zm764.48 199.48L1250 1935l485.74-485.72 282.65 282.35-.14.15L1250 2500 482 1732l-.4-.4 282.91-282.12M1935 1250l282.5-282.5L2500 1250l-282.5 282.5z"/>
  <path d="M1536.52 1249.85h.12L1250 963.19 1038.13 1175l-24.34 24.35-50.2 50.21-.4.39.4.41L1250 1536.81l286.66-286.66.14-.16-.28-.14"/>
</svg>
