<svg xmlns="http://www.w3.org/2000/svg" viewBox="0 0 480 120" fill="white">
  <path d="M0 5.5h36.3c19 0 30.1 8.9 30.1 24.6 0 10.1-5.3 17.3-13.6 20.7 10.8 2.9 18 11.4 18 23.3 0 16.7-12.3 26.3-31.9 26.3H0V5.5zm34.5 38.9c8.3 0 13-4.7 13-11.9s-4.7-11.8-13-11.8h-15v23.7h15zm1.8 40.8c9.5 0 14.8-5.2 14.8-13 0-8-5.3-13-14.8-13H19.4v26h16.9z"/>
  <rect x="80" y="5.5" width="19.4" height="94.9"/>
  <path d="M115 5.5h18.5l37.1 60.2V5.5h19.4V100.4H171.5L134.4 40.3v60.2H115V5.5z"/>
  <path d="M260 52.9C260 23 278.6 4 304 4c14.8 0 25.5 6.4 32.6 16l-14.3 11.3c-4.4-6-10.6-9.5-18-9.5-14.8 0-24.5 12.4-24.5 31s9.8 31 24.5 31c8.3 0 14.7-3.2 18.4-7.6V63.6h-22V46.6h40.4v41c-8.4 10.5-21.2 16.8-37.1 16.8C278.6 104.4 260 84.4 260 52.9z"/>
  <path d="M370 5.5h19.4l16.7 29.2L422.8 5.5h19.4L413 50.8l30 49.6h-19.4l-17.8-30.2L388 100.4h-19.4l30-49.6L370 5.5z"/>
</svg>
