<svg xmlns="http://www.w3.org/2000/svg" viewBox="0 0 560 160" fill="white">
  <path d="M68.3 0L33.1 0 0 33.1v13.8L33.1 80h0L0 113.1v13.8L33.1 160h35.2L101.4 126.9v-13.8L68.3 80h0L101.4 46.9v-13.8L68.3 0zM50.7 120.3L25.4 95v0L50.7 69.7 76 95v0L50.7 120.3zM76 65L50.7 39.7 25.4 65v0L50.7 39.7V39.7z"/>
  <path d="M140 28h36.3c19 0 30.1 8.9 30.1 24.6 0 10.1-5.3 17.3-13.6 20.7 10.8 2.9 18 11.4 18 23.3 0 16.7-12.3 26.3-31.9 26.3H140V28zm34.5 38.9c8.3 0 13-4.7 13-11.9s-4.7-11.8-13-11.8h-15v23.7h15zm1.8 40.8c9.5 0 14.8-5.2 14.8-13 0-8-5.3-13-14.8-13h-16.9v26h16.9z"/>
  <rect x="220" y="28" width="19.4" height="94.9"/>
  <path d="M267 47.3h-25.3V28h70.1v19.3H286.5v75.6H267V47.3z"/>
  <path d="M375 27c-26 0-43.1 18-43.1 48.5s17.1 48.5 43.1 48.5c14.3 0 25.1-5.6 32.1-15.1l-15.4-11.2c-4 5.3-9.7 8.2-16.4 8.2-13 0-22.5-10.4-22.5-30.4s9.5-30.4 22.5-30.4c6.6 0 11.7 2.5 15.7 6.9l15.5-11.7C399.5 31.8 389.1 27 375 27z"/>
  <path d="M421 28h60.3v18H440.4v20.9H476v17.5h-35.6V104h42.3v18.9H421V28z"/>
  <path d="M507 47.3h-25.3V28h70.1v19.3H526.5v75.6H507V47.3z"/>
</svg>
