<svg xmlns="http://www.w3.org/2000/svg" viewBox="0 0 200 48" fill="white">
  <path d="M0 2.77h18.16c9.49 0 15.04 4.45 15.04 12.3 0 5.07-2.66 8.67-6.8 10.36 5.4 1.46 8.98 5.68 8.98 11.67 0 8.37-6.17 13.13-15.97 13.13H0V2.77zm17.24 19.45c4.14 0 6.49-2.35 6.49-5.95 0-3.53-2.35-5.88-6.49-5.88H9.72v11.83h7.52zm.92 20.38c4.76 0 7.42-2.58 7.42-6.49 0-3.99-2.66-6.49-7.42-6.49H9.72v12.98h8.44z"/>
  <path d="M49.94 31.02l-14.1-28.25h10.95l8.67 18.93 8.67-18.93h10.95L61.05 31.02v19.21H49.94V31.02z"/>
  <path d="M79.06 2.77h18.16c9.49 0 15.04 4.45 15.04 12.3 0 5.07-2.66 8.67-6.8 10.36 5.4 1.46 8.98 5.68 8.98 11.67 0 8.37-6.17 13.13-15.97 13.13H79.06V2.77zm17.24 19.45c4.14 0 6.49-2.35 6.49-5.95 0-3.53-2.35-5.88-6.49-5.88h-7.52v11.83h7.52zm.92 20.38c4.76 0 7.42-2.58 7.42-6.49 0-3.99-2.66-6.49-7.42-6.49h-8.44v12.98h8.44z"/>
  <path d="M122.98 2.77h9.72v47.46h-9.72V2.77z"/>
  <path d="M147.52 10.39h-12.68V2.77h35.07v7.62h-12.67v39.84h-9.72V10.39z"/>
</svg>
