<svg xmlns="http://www.w3.org/2000/svg" viewBox="0 0 800 195" fill="white">
  <path d="M0 11.1h72.6c38 0 60.2 17.8 60.2 49.2 0 20.3-10.6 34.7-27.2 41.4 21.6 5.8 35.9 22.7 35.9 46.7 0 33.5-24.7 52.5-63.9 52.5H0V11.1zm69 77.8c16.6 0 26-9.4 26-23.8 0-14.1-9.4-23.5-26-23.5H38.9v47.3H69zm3.7 81.5c19 0 29.7-10.3 29.7-26 0-16-10.6-26-29.7-26H38.9v51.9H72.7z"/>
  <path d="M200 124.1L143.5 11.1h43.8l34.7 75.7L256.7 11.1h43.8l-56.6 113v78.8H200V124.1z"/>
  <path d="M316.2 11.1h72.7c38 0 60.2 17.8 60.2 49.2 0 20.3-10.6 34.7-27.2 41.4 21.6 5.8 35.9 22.7 35.9 46.7 0 33.5-24.7 52.5-63.9 52.5H316.2V11.1zm69 77.8c16.6 0 26-9.4 26-23.8 0-14.1-9.4-23.5-26-23.5h-30.1v47.3h30.1zm3.7 81.5c19 0 29.7-10.3 29.7-26 0-16-10.6-26-29.7-26h-33.7v51.9h33.7z"/>
  <rect x="474" y="11.1" width="38.9" height="189.8"/>
  <path d="M554.7 30.4h-50.7V11.1h140.3v19.3h-50.7v171.5h-38.9V30.4z"/>
</svg>
