<svg xmlns="http://www.w3.org/2000/svg" viewBox="0 0 174 48" fill="white">
  <path d="M31.66 16.48H16.48v15.18h15.18V16.48zM15.17 0H0v15.18h15.17V0zM31.66 0H16.48v15.18h15.18V0zM48.14 0H32.97v15.18h15.17V0zM15.17 16.48H0v15.18h15.17V16.48zM48.14 16.48H32.97v15.18h15.17V16.48zM15.17 32.97H0v15.17h15.17V32.97zM31.66 32.97H16.48v15.17h15.18V32.97zM48.14 32.97H32.97v15.17h15.17V32.97z"/>
  <path d="M83.35 0C66.09 0 56.7 9.39 56.7 24.01s9.39 24 26.65 24c17.27 0 26.66-9.39 26.66-24.01S100.62 0 83.35 0zm0 37.24c-10.65 0-15.18-5.8-15.18-13.23 0-7.44 4.53-13.24 15.18-13.24 10.66 0 15.18 5.8 15.18 13.24 0 7.43-4.52 13.23-15.18 13.23zM174 0h-13.52l-16.72 18.2L127.05 0h-13.52l23.48 24.01L113.53 48h13.52l16.71-18.2L160.48 48H174l-23.48-24.01L174 0z"/>
</svg>
