<svg width="398" height="114" viewBox="0 0 398 114" fill="none" xmlns="http://www.w3.org/2000/svg">
<rect x="0.666992" y="57" width="79.3944" height="79.3944" transform="rotate(-45 0.666992 57)" fill="white"/>
<path d="M0.666992 57.1221L56.8073 0.981719V57.1221H0.666992Z" fill="#032CC4"/>
<path d="M0.666992 57L56.8073 113.14V57H0.666992Z" fill="#6C6F72"/>
<path fill-rule="evenodd" clip-rule="evenodd" d="M211.985 14.8945C222.001 14.8945 230.134 18.3943 236.385 25.3938C242.703 32.3933 245.862 41.5129 245.862 52.7525C245.862 63.9248 242.737 72.977 236.485 79.9092C236.444 79.9543 236.403 79.9991 236.362 80.0438L246.281 99.1051L216.934 71.064V42.7068L233.043 73.665C237.018 68.1397 239.006 61.1352 239.006 52.6515C239.006 43.1618 236.519 35.4893 231.545 29.6339C226.571 23.7785 220.018 20.8508 211.885 20.8508C203.886 20.8508 197.4 23.7449 192.426 29.5329C187.519 35.321 185.066 42.9262 185.066 52.3487C185.066 61.973 187.519 69.7128 192.426 75.5682C197.332 81.3563 203.852 84.2503 211.985 84.2503C214.675 84.2503 217.188 83.9337 219.525 83.3007L224.523 88.0765C220.714 89.4966 216.501 90.2066 211.885 90.2066C201.802 90.2066 193.669 86.7405 187.485 79.8083C181.301 72.8761 178.21 63.7902 178.21 52.5506C178.21 41.311 181.301 32.2251 187.485 25.2928C193.736 18.3606 201.903 14.8945 211.985 14.8945ZM161.908 16.6108V88.4904H155.052V16.6108H161.908Z" fill="white"/>
<path d="M327.282 38.1114H312.395C311.792 31.1711 307.165 27.4494 298.816 27.4494C291.574 27.4494 287.249 30.467 287.249 35.5968C287.249 41.833 294.893 42.336 309.177 46.3594C321.951 49.9804 330.098 54.9091 330.098 66.8787C330.098 83.7769 315.212 90.0132 300.627 90.0132C281.214 90.0132 269.747 80.6588 269.546 64.4646H285.137C285.439 74.1208 291.775 77.943 301.331 77.943C309.579 77.943 314.608 74.3219 314.608 68.3874C314.608 62.7547 309.78 61.7488 294.994 57.5243C283.326 54.205 272.161 51.288 272.161 36.7032C272.161 23.7278 283.024 15.2787 299.722 15.2787C314.809 15.2787 326.98 22.1184 327.282 38.1114ZM395.118 16.7874V29.964H360.315V46.5605H390.591V59.033H360.315V88.4038H344.624V16.7874H395.118Z" fill="white"/>
</svg>
