<svg xmlns="http://www.w3.org/2000/svg" width="350" height="86" viewBox="0 0 350 86">
    <g fill="#FFF" fill-rule="evenodd">
        <path d="M127.71 66.446v-45.12H110V18h39.198v3.327H131.49v45.119h-3.78zm43.607.485c-9.73 0-17.57-6.723-17.57-17.604 0-10.258 7.84-17.674 17.57-17.674s18.41 5.892 17.08 19.268h-31.15c.7 8.04 6.93 12.683 14.07 12.683 4.55 0 9.87-1.802 12.46-5.198l2.45 1.94c-3.36 4.367-9.38 6.585-14.91 6.585zm-14.07-18.99h28.07c-.07-8.456-5.67-13.169-14-13.169-7.14 0-13.3 4.782-14.07 13.169zm40.039-15.733h3.36v6.099c2.66-4.713 7.49-6.654 12.32-6.723 9.239 0 15.608 5.614 15.608 15.11v19.752h-3.43V46.762c0-7.762-4.83-11.92-12.319-11.851-7.14.07-12.11 5.406-12.11 12.475v19.06h-3.43V32.208zm55.857 34.723c-9.73 0-17.569-6.723-17.569-17.604 0-10.258 7.84-17.674 17.57-17.674 9.729 0 18.408 5.892 17.078 19.268h-31.148c.7 8.04 6.93 12.683 14.07 12.683 4.55 0 9.869-1.802 12.459-5.198l2.45 1.94c-3.36 4.367-9.38 6.585-14.91 6.585zm-14.07-18.99h28.07c-.07-8.456-5.67-13.169-14-13.169-7.14 0-13.3 4.782-14.07 13.169zm44.589-25.555h3.36v9.822h11.76v2.842h-11.76v20.86c0 4.644.98 7.902 6.37 7.902 1.68 0 3.57-.555 5.32-1.386l1.19 2.772c-2.17 1.04-4.34 1.733-6.51 1.733-7.35 0-9.73-4.297-9.73-11.02V35.05h-7.35v-2.842h7.35v-9.822zm48.858 13.842l-2.1 2.218c-3.5-3.05-6.93-3.604-10.78-3.604-5.39-.07-10.57 1.94-10.43 6.307.14 4.574 6.16 5.475 10.5 6.237 6.16 1.04 14.63 2.08 14.28 10.05-.21 7.554-8.12 9.564-14.21 9.564-6.09 0-12.11-2.287-15.12-6.861l2.52-2.218c2.87 4.089 8.05 5.822 12.67 5.822 4.2 0 10.57-1.11 10.78-6.515.14-4.921-5.6-5.891-11.27-6.792-6.72-1.11-13.37-2.357-13.44-9.218-.07-6.723 6.72-9.634 13.72-9.565 5.04 0 9.45 1.387 12.88 4.575z"/>
        <path fill-rule="nonzero" d="M76.42 41.476l-24.39-24.39-41.16 41.161-6.97-6.969L52.158 3.02 83.6 34.462l-7.18 7.014zm-48.774 4.048l24.39 24.39 41.162-41.16 6.969 6.968L51.909 83.98 20.467 52.538l7.18-7.014zM11.203 33L16 37.798 9.799 44 5 39.202zM94.203 43L99 47.798 92.799 54 88 49.202z"/>
    </g>
</svg>
