<svg width="397" height="113" viewBox="0 0 397 113" fill="none" xmlns="http://www.w3.org/2000/svg">
<rect y="56.1401" width="79.3944" height="79.3944" transform="rotate(-45 0 56.1401)" fill="#212426"/>
<path d="M0 56.2622L56.1404 0.121855V56.2622H0Z" fill="#032CC4"/>
<path d="M0 56.1401L56.1404 112.28V56.1401H0Z" fill="#313335"/>
<path fill-rule="evenodd" clip-rule="evenodd" d="M211.318 14.0347C221.334 14.0347 229.467 17.5344 235.718 24.5339C242.036 31.5335 245.195 40.653 245.195 51.8926C245.195 63.0649 242.07 72.1172 235.818 79.0494C235.778 79.0944 235.736 79.1393 235.695 79.184L245.614 98.2452L216.267 70.2041V41.8469L232.376 72.8052C236.351 67.2799 238.339 60.2754 238.339 51.7917C238.339 42.3019 235.852 34.6294 230.878 28.774C225.904 22.9187 219.351 19.991 211.218 19.991C203.219 19.991 196.733 22.885 191.759 28.6731C186.852 34.4611 184.399 42.0664 184.399 51.4888C184.399 61.1131 186.852 68.853 191.759 74.7083C196.665 80.4964 203.185 83.3904 211.318 83.3904C214.008 83.3904 216.521 83.0739 218.858 82.4408L223.856 87.2166C220.047 88.6367 215.834 89.3467 211.218 89.3467C201.135 89.3467 193.002 85.8806 186.818 78.9484C180.634 72.0162 177.543 62.9303 177.543 51.6907C177.543 40.4511 180.634 31.3652 186.818 24.433C193.069 17.5008 201.236 14.0347 211.318 14.0347ZM161.241 15.7509V87.6305H154.385V15.7509H161.241Z" fill="#212426"/>
<path d="M326.615 37.2515H311.728C311.125 30.3112 306.498 26.5896 298.149 26.5896C290.907 26.5896 286.582 29.6071 286.582 34.7369C286.582 40.9732 294.226 41.4761 308.51 45.4995C321.284 49.1206 329.431 54.0492 329.431 66.0188C329.431 82.917 314.545 89.1533 299.96 89.1533C280.547 89.1533 269.08 79.7989 268.879 63.6048H284.47C284.772 73.2609 291.108 77.0831 300.664 77.0831C308.912 77.0831 313.941 73.4621 313.941 67.5276C313.941 61.8948 309.113 60.889 294.327 56.6644C282.659 53.3451 271.494 50.4282 271.494 35.8434C271.494 22.8679 282.357 14.4188 299.055 14.4188C314.142 14.4188 326.313 21.2586 326.615 37.2515ZM394.451 15.9276V29.1042H359.648V45.7007H389.924V58.1732H359.648V87.5439H343.957V15.9276H394.451Z" fill="#212426"/>
</svg>
